PathFileType	4	(X/Y/Z)	rand1.trc
DataRate	CameraRate	NumFrames	NumMarkers	Units	OrigDataRate	OrigDataStartFrame	OrigNumFrames
100.0	100.0	11	17	mm	100.0	344	1373
Frame#	Time	STER			XIPH			T10			T1			CLAV_SC			CLAV_AC			SCAP_AA			SCAP_CP			SCAP_TS			SCAP_IA			DELT			ARMl			EPICm			EPICl			LARM_elb			STYLr			STYLu		
		X1	Y1	Z1	X2	Y2	Z2	X3	Y3	Z3	X4	Y4	Z4	X5	Y5	Z5	X6	Y6	Z6	X7	Y7	Z7	X8	Y8	Z8	X9	Y9	Z9	X10	Y10	Z10	X11	Y11	Z11	X12	Y12	Z12	X13	Y13	Z13	X14	Y14	Z14	X15	Y15	Z15	X16	Y16	Z16	X17	Y17	Z17

344	3.43	383.6372985839844	74.61857604980469	1437.318359375	384.9877624511719	128.77247619628906	1272.4718017578125	390.1748352050781	-102.284423828125	1240.1085205078125	382.9945068359375	-83.82689666748047	1470.2803955078125	418.5291748046875	70.8894271850586	1442.4892578125	555.6018676757812	24.165224075317383	1474.40673828125	577.0734252929688	-8.60883617401123	1457.584228515625	528.2861938476562	-37.16938781738281	1474.15283203125	530.9278564453125	-90.62220001220703	1423.544189453125	510.8075866699219	-111.34966278076172	1287.334228515625	659.6610717773438	96.34052276611328	1446.277587890625	691.2432861328125	126.25678253173828	1437.2242431640625	740.2974243164062	258.58721923828125	1345.4349365234375	745.6205444335938	236.5084686279297	1442.42333984375	786.7316284179688	274.4165344238281	1369.1800537109375	550.663330078125	422.89105224609375	1461.5089111328125	598.470947265625	456.8865966796875	1402.5220947265625
345	3.44	383.434326171875	74.67394256591797	1437.3531494140625	384.91326904296875	128.80630493164062	1272.4710693359375	390.05474853515625	-102.24771881103516	1240.1064453125	382.8452453613281	-83.75796508789062	1470.26953125	418.4443359375	70.9551773071289	1442.4139404296875	555.608154296875	24.24901580810547	1474.2376708984375	577.0341796875	-8.575627326965332	1457.4105224609375	528.197998046875	-37.07120132446289	1474.0823974609375	530.7342529296875	-90.60758972167969	1423.5169677734375	510.6006774902344	-111.40065002441406	1287.2579345703125	659.9971313476562	96.20870208740234	1445.2557373046875	691.6041259765625	125.96865844726562	1435.8463134765625	740.4390258789062	257.9372253417969	1343.32763671875	746.3847045898438	236.0612030029297	1440.48828125	787.1266479492188	273.5057678222656	1366.8624267578125	552.8033447265625	424.07666015625	1460.5877685546875	600.4051513671875	457.4330139160156	1401.027099609375
346	3.45	383.3134460449219	74.7667007446289	1437.1470947265625	384.79833984375	128.80105590820312	1272.4423828125	389.9290466308594	-102.21662139892578	1240.0870361328125	382.7568054199219	-83.68976593017578	1470.2918701171875	418.32427978515625	71.0059585571289	1442.353515625	555.650634765625	24.318523406982422	1474.0576171875	577.0283203125	-8.540206909179688	1457.23486328125	528.1334838867188	-36.954559326171875	1473.973876953125	530.647705078125	-90.56092834472656	1423.4698486328125	510.39056396484375	-111.46399688720703	1287.1990966796875	660.36669921875	96.01556396484375	1444.1180419921875	692.0045166015625	125.6214599609375	1434.4049072265625	740.6468505859375	257.2044372558594	1341.2977294921875	747.2481689453125	235.52894592285156	1438.4813232421875	787.6104125976562	272.49993896484375	1364.426513671875	555.1289672851562	425.28570556640625	1459.5467529296875	602.6368408203125	458.0180969238281	1399.437744140625
347	3.46	382.8366394042969	74.83206939697266	1436.8905029296875	384.687744140625	128.7975616455078	1272.3472900390625	389.7687072753906	-102.208740234375	1240.078857421875	382.6381530761719	-83.64312744140625	1470.2918701171875	418.29876708984375	71.07186889648438	1442.27099609375	555.6950073242188	24.362390518188477	1473.8460693359375	577.054931640625	-8.531839370727539	1457.0711669921875	528.0565185546875	-36.894317626953125	1473.8690185546875	530.5419311523438	-90.54141998291016	1423.3450927734375	510.1935119628906	-111.52497100830078	1287.1455078125	660.8461303710938	95.78459167480469	1443.0009765625	692.4948120117188	125.20982360839844	1432.921142578125	740.970703125	256.416015625	1339.0672607421875	748.1865844726562	234.90353393554688	1436.3970947265625	788.0056762695312	271.357177734375	1361.85791015625	557.7662963867188	426.63525390625	1458.4178466796875	605.185546875	458.7017517089844	1397.794921875
348	3.47	382.7211608886719	74.86829376220703	1436.8363037109375	384.51153564453125	128.82281494140625	1272.32958984375	389.6122131347656	-102.19611358642578	1240.0545654296875	382.4909973144531	-83.60952758789062	1470.28173828125	418.2065124511719	71.11832427978516	1442.2032470703125	555.7243041992188	24.398563385009766	1473.7127685546875	577.013671875	-8.54507064819336	1456.880615234375	528.013916015625	-36.8323974609375	1473.7755126953125	530.4470825195312	-90.53733825683594	1423.29150390625	509.9832763671875	-111.57874298095703	1287.0400390625	661.037353515625	95.49974822998047	1441.6982421875	693.0242919921875	124.74192810058594	1431.3729248046875	741.2586059570312	255.5364990234375	1336.9779052734375	749.220947265625	234.2072296142578	1434.2374267578125	788.629638671875	270.1117248535156	1359.2744140625	560.654296875	427.9479064941406	1457.259033203125	607.95361328125	459.36541748046875	1396.049560546875
349	3.48	382.9203186035156	74.92453002929688	1436.8861083984375	384.33526611328125	128.84786987304688	1272.3135986328125	389.46533203125	-102.17878723144531	1240.0604248046875	382.34027099609375	-83.58849334716797	1470.296142578125	418.180419921875	71.13218688964844	1442.197509765625	555.7752685546875	24.39124870300293	1473.5999755859375	577.0070190429688	-8.584366798400879	1456.701171875	527.9508666992188	-36.82780075073242	1473.72509765625	530.22509765625	-90.58106231689453	1423.3162841796875	509.8023681640625	-111.60806274414062	1286.9801025390625	661.0081176757812	95.07723999023438	1440.17431640625	693.5917358398438	124.22830963134766	1429.7711181640625	741.6651611328125	254.55380249023438	1334.6011962890625	750.35498046875	233.42391967773438	1431.9814453125	789.32373046875	268.7402648925781	1356.5001220703125	563.8410034179688	429.3505859375	1456.0399169921875	610.9666137695312	460.0030822753906	1394.2530517578125
350	3.49	382.8866882324219	74.93678283691406	1436.9124755859375	384.22003173828125	128.8431854248047	1272.27978515625	389.32659912109375	-102.15653228759766	1240.05615234375	382.2236633300781	-83.56563568115234	1470.296142578125	418.02142333984375	71.15336608886719	1442.2537841796875	555.7385864257812	24.39754867553711	1473.461181640625	577.0455932617188	-8.638383865356445	1456.5743408203125	527.8509521484375	-36.82210159301758	1473.67626953125	530.1737670898438	-90.58528137207031	1423.216064453125	509.5892028808594	-111.6459732055664	1286.9052734375	662.05029296875	94.7099838256836	1438.951416015625	694.1674194335938	123.65567779541016	1428.1026611328125	742.00244140625	253.47547912597656	1332.2093505859375	751.544189453125	232.5633087158203	1429.57958984375	789.72265625	267.22662353515625	1353.6357421875	567.4916381835938	430.7333984375	1454.67138671875	614.2352294921875	460.6568298339844	1392.327392578125
351	3.5	382.8492736816406	74.96794891357422	1436.8428955078125	384.0379333496094	128.86962890625	1272.2744140625	389.20660400390625	-102.15547943115234	1240.0394287109375	382.0959167480469	-83.53939819335938	1470.3265380859375	417.9635314941406	71.16641998291016	1442.2099609375	555.761962890625	24.436256408691406	1473.3226318359375	577.0050048828125	-8.666955947875977	1456.43212890625	527.7514038085938	-36.81440734863281	1473.616455078125	529.9071655273438	-90.63825988769531	1423.2196044921875	509.4269104003906	-111.6618881225586	1286.77392578125	662.7202758789062	94.25216674804688	1437.7935791015625	694.7848510742188	123.01097106933594	1426.36474609375	742.3006591796875	252.26708984375	1329.6444091796875	752.8527221679688	231.58712768554688	1427.089111328125	790.4015502929688	265.59124755859375	1350.52685546875	571.1818237304688	432.15557861328125	1453.24853515625	617.66748046875	461.23870849609375	1390.2598876953125
352	3.5100000000000002	382.8236083984375	75.01305389404297	1436.8382568359375	387.6383361816406	128.0014190673828	1272.3260498046875	389.087646484375	-102.11933135986328	1240.0526123046875	381.95147705078125	-83.5152359008789	1470.328369140625	417.86663818359375	71.18468475341797	1442.1904296875	555.7933349609375	24.464609146118164	1473.196533203125	576.9645385742188	-8.672370910644531	1456.28369140625	527.682861328125	-36.76386260986328	1473.5364990234375	529.737548828125	-90.6502685546875	1423.2147216796875	509.2663269042969	-111.68296813964844	1286.7025146484375	662.748291015625	93.69879913330078	1436.19873046875	695.3905029296875	122.28469848632812	1424.5523681640625	742.7762451171875	250.99195861816406	1326.9898681640625	754.2393798828125	230.5157470703125	1424.527587890625	791.1482543945312	263.81951904296875	1347.3763427734375	575.0807495117188	433.53619384765625	1451.6953125	621.3189697265625	461.7502136230469	1388.0736083984375
353	3.52	382.8049621582031	75.0667724609375	1436.853271484375	387.6413879394531	127.9939956665039	1272.330078125	388.9477844238281	-102.09776306152344	1240.0450439453125	381.81201171875	-83.46231842041016	1470.3206787109375	417.9062194824219	71.26067352294922	1441.99462890625	555.9158935546875	24.475919723510742	1473.140380859375	576.9653930664062	-8.712263107299805	1456.1790771484375	527.589599609375	-36.68864440917969	1473.4781494140625	529.6038208007812	-90.65815734863281	1423.211181640625	509.01885986328125	-111.69902038574219	1286.620849609375	663.0712890625	93.16228485107422	1434.5994873046875	696.0406494140625	121.4841079711914	1422.6944580078125	743.1589965820312	249.63357543945312	1324.4586181640625	755.6763916015625	229.35202026367188	1421.90087890625	791.236328125	261.8551330566406	1344.0430908203125	579.3399658203125	434.95269775390625	1450.0772705078125	625.0634765625	462.1772155761719	1385.7935791015625
354	3.5300000000000002	382.80767822265625	75.14881134033203	1436.8349609375	383.8142395019531	128.97007751464844	1272.2818603515625	388.7779235839844	-102.05367279052734	1240.03271484375	381.6753234863281	-83.4203872680664	1470.3433837890625	417.8430480957031	71.30030822753906	1441.981201171875	556.008056640625	24.46558952331543	1473.081787109375	577.00341796875	-8.78013801574707	1456.0697021484375	527.5183715820312	-36.66151428222656	1473.4581298828125	529.3952026367188	-90.68034362792969	1423.2120361328125	508.857421875	-111.70116424560547	1286.6331787109375	663.5110473632812	92.63084411621094	1433.1365966796875	696.7503662109375	120.60625457763672	1420.805908203125	743.7838745117188	248.203369140625	1321.64404296875	757.196044921875	228.11228942871094	1419.205322265625	792.5420532226562	259.9892272949219	1341.03759765625	583.610107421875	436.2594909667969	1448.413818359375	629.0697631835938	462.56158447265625	1383.376953125
